<svg width="130" height="32" viewBox="0 0 130 32" fill="none" xmlns="http://www.w3.org/2000/svg">
<path d="M9.6363 11.4123C10.6171 11.4123 11.4123 10.6171 11.4123 9.6363C11.4123 8.65547 10.6171 7.86035 9.6363 7.86035C8.65547 7.86035 7.86035 8.65547 7.86035 9.6363C7.86035 10.6171 8.65547 11.4123 9.6363 11.4123Z" fill="#FF0000"/>
<g clip-path="url(#clip0_8759_5988)">
<path d="M63.3322 8.00684H57.7795C56.0768 8.00684 54.6699 9.26536 54.4478 10.9684L52.856 23.9989H56.1137L56.7059 19.2234H58.9805L61.5183 23.9989H65.2942L62.196 18.1359L65.6643 13.93C67.9224 11.1905 66.6639 8.00716 63.3322 8.00716V8.00684ZM62.5178 12.5971L60.0745 15.6327C59.9264 15.8179 59.6671 15.9288 59.4451 15.9288H57.1129L57.6683 11.2645H61.9993C62.7028 11.2645 62.9989 11.968 62.5175 12.5971H62.5178Z" fill="black"/>
<path d="M91.8522 8.00684H86.2995C84.5968 8.00684 83.1899 9.26536 82.9678 10.9684L81.376 23.9989H84.6337L85.2259 19.2234H87.5005L90.0383 23.9989H93.8142L90.7161 18.1359L94.1843 13.93C96.4425 11.1905 95.1839 8.00716 91.8522 8.00716V8.00684ZM91.0379 12.5971L88.5945 15.6327C88.4464 15.8179 88.1872 15.9288 87.9651 15.9288H85.6329L86.1883 11.2645H90.5193C91.2228 11.2645 91.5189 11.968 91.0375 12.5971H91.0379Z" fill="#FF2410"/>
<path d="M35.3092 8.00684H29.7566C28.0539 8.00684 26.6469 9.26536 26.4248 10.9684L24.833 23.9989H28.0907L28.683 19.2234H32.0147C32.829 19.2234 33.6434 18.8532 34.1988 18.1498L37.6786 13.9297C40.0847 11.0053 38.641 8.00684 35.3092 8.00684ZM34.5317 12.5971L32.0884 15.6327C31.9403 15.8179 31.681 15.9288 31.459 15.9288H29.0896L29.645 11.2645H34.0132C34.7167 11.2645 35.0128 11.968 34.5314 12.5971H34.5317Z" fill="black"/>
<path d="M46.748 7.8584C43.3422 7.8584 40.307 10.6719 39.8624 14.2254L39.4183 17.742C38.9741 21.2959 41.3431 24.1462 44.7488 24.1462C48.1546 24.1462 51.1899 21.2959 51.6344 17.742L52.0786 14.2254C52.5227 10.6719 50.1534 7.8584 46.748 7.8584ZM48.9689 14.2254L48.5247 17.7792C48.3026 19.4819 46.822 20.8889 45.1562 20.8889C43.4903 20.8889 42.3058 19.4823 42.5279 17.7792L42.9721 14.2254C43.1942 12.4855 44.6748 11.1158 46.3407 11.1158C48.0065 11.1158 49.191 12.4855 48.9689 14.2254Z" fill="black"/>
<path d="M12.8063 12.8192C12.473 15.5955 14.25 17.6315 17.0264 17.6315H18.8031C19.6915 17.6315 20.2837 18.2978 20.1728 19.1862C20.0616 20.0746 19.3213 20.7408 18.433 20.7408H11.8439L11.4365 23.9989H18.1C20.8395 23.9989 23.0976 21.9628 23.4305 19.2234C23.7639 16.447 21.9868 14.3738 19.2104 14.3738H17.4337C16.5453 14.3738 15.9531 13.7076 16.064 12.8192C16.1752 11.9308 16.9155 11.2645 17.8039 11.2645H24.393L24.8003 8.00684H18.2109C15.4345 8.00684 13.1392 10.0429 12.8063 12.8192Z" fill="black"/>
<path d="M112.899 14.3742C113.121 12.6343 114.602 11.2645 116.268 11.2645H120.975L121.382 8.00684H116.675C113.269 8.00684 110.234 10.8203 109.79 14.3738L109.382 17.5944C108.938 21.1482 111.27 23.9614 114.676 23.9985H119.408L119.815 20.7408H115.083C113.418 20.704 112.27 19.3343 112.492 17.6312L112.899 14.3735V14.3742Z" fill="#FF2410"/>
<path d="M97.3148 10.9678L96.0931 21.0366C95.8711 22.7394 96.9815 23.9982 98.6846 23.9982H106.569L106.977 20.7405H99.4249L99.795 17.6309H106.125L106.533 14.3732H100.202L100.573 11.2636H108.124L108.532 8.00586H100.647C98.9442 8.00586 97.5373 9.26439 97.3152 10.9674L97.3148 10.9678Z" fill="#FF2410"/>
<path d="M68.6626 11.2645H73.1788L71.6242 23.9989H74.8819L76.4365 11.2645H80.9527L81.3601 8.00684H69.0699L68.6626 11.2645Z" fill="black"/>
</g>
<defs>
<clipPath id="clip0_8759_5988">
<rect width="109.946" height="16.2882" fill="white" transform="translate(11.4365 7.8584)"/>
</clipPath>
</defs>
</svg>
