<svg width="19" height="18" viewBox="0 0 19 18" fill="none" xmlns="http://www.w3.org/2000/svg">
<path class="oral" d="M7.13135 15.75V10.2C7.13135 9.77996 7.13135 9.56994 7.2131 9.40951C7.285 9.26839 7.39974 9.15365 7.54086 9.08175C7.70129 9 7.91131 9 8.33135 9H10.4314C10.8514 9 11.0614 9 11.2218 9.08175C11.363 9.15365 11.4777 9.26839 11.5496 9.40951C11.6314 9.56994 11.6314 9.77996 11.6314 10.2V15.75M1.88135 7.125L8.66135 2.04C8.91954 1.84635 9.04864 1.74953 9.19043 1.71221C9.31558 1.67926 9.44712 1.67926 9.57228 1.71221C9.71406 1.74953 9.84316 1.84635 10.1014 2.04L16.8814 7.125M3.38135 6V13.35C3.38135 14.1901 3.38135 14.6101 3.54484 14.931C3.68865 15.2132 3.91812 15.4427 4.20037 15.5865C4.52123 15.75 4.94127 15.75 5.78135 15.75H12.9814C13.8214 15.75 14.2415 15.75 14.5623 15.5865C14.8446 15.4427 15.0741 15.2132 15.2179 14.931C15.3814 14.6101 15.3814 14.1901 15.3814 13.35V6L10.8214 2.58C10.305 2.19271 10.0468 1.99906 9.7632 1.92442C9.5129 1.85853 9.2498 1.85853 8.9995 1.92442C8.71593 1.99906 8.45774 2.19271 7.94135 2.58L3.38135 6Z" stroke="#06082C" stroke-width="1.35" stroke-linecap="round" stroke-linejoin="round"/>
</svg>
