<svg width="19" height="18" viewBox="0 0 19 18" fill="none" xmlns="http://www.w3.org/2000/svg">
<path d="M12.5633 5.81956C14.3207 7.57692 14.3207 10.4262 12.5633 12.1835M6.19937 12.1835C4.44201 10.4261 4.44201 7.5769 6.19937 5.81954M4.07805 14.3048C1.14911 11.3759 1.14911 6.62717 4.07805 3.69824M14.6846 3.69828C17.6136 6.62721 17.6136 11.3759 14.6846 14.3049M10.8813 9.00154C10.8813 9.82997 10.2098 10.5015 9.38135 10.5015C8.55292 10.5015 7.88135 9.82997 7.88135 9.00154C7.88135 8.17312 8.55292 7.50154 9.38135 7.50154C10.2098 7.50154 10.8813 8.17312 10.8813 9.00154Z" stroke="#9395B8" stroke-width="1.38462" stroke-linecap="round" stroke-linejoin="round"/>
</svg>
